<svg version="1.1" xmlns="http://www.w3.org/2000/svg" xmlns:xlink="http://www.w3.org/1999/xlink" width="481.98198" height="363.36336" viewBox="0,0,481.98198,363.36336"><defs><linearGradient x1="241.04269" y1="-0.69634" x2="241.04269" y2="362.66702" gradientUnits="userSpaceOnUse" id="color-1"><stop offset="0" stop-color="#4a0000"/><stop offset="1" stop-color="#ff4000"/></linearGradient></defs><g transform="translate(-0.05169,0.69634)"><g data-paper-data="{&quot;isPaintingLayer&quot;:true}" fill-rule="nonzero" stroke-linejoin="miter" stroke-miterlimit="10" stroke-dasharray="" stroke-dashoffset="0" style="mix-blend-mode: normal"><path d="M0.0517,362.66702v-363.36336h481.98198v363.36336z" fill="url(#color-1)" stroke="none" stroke-width="0" stroke-linecap="butt"/><g><path d="M295.91897,273.81296l33.71854,-81.69766l81.69766,33.71854l-33.71854,81.69766z" fill="#0b0b0b" stroke="none" stroke-width="0" stroke-linecap="butt"/><path d="M305.34226,266.07819c0.78527,-1.90265 2.9643,-2.80848 4.86694,-2.02321c1.90265,0.78527 2.80848,2.9643 2.02321,4.86694c-0.78527,1.90265 -2.9643,2.80848 -4.86694,2.02321c-1.90265,-0.78527 -2.80848,-2.9643 -2.02321,-4.86694z" fill="#ff0000" stroke="#ff0000" stroke-width="2" stroke-linecap="butt"/><path d="M351.45278,290.03697l2.52777,-6.12459l6.87204,-2.53963l3.08039,6.64723l-2.52777,6.12459z" fill="#585858" stroke="#585858" stroke-width="2" stroke-linecap="butt"/><path d="M330.5575,280.96502l2.52775,-6.12457l6.87207,-2.53965l3.08038,6.64727l-2.52775,6.12457z" fill="#585858" stroke="#585858" stroke-width="2" stroke-linecap="butt"/><path d="M324.64985,219.84c1.96319,-4.75666 7.41071,-7.02122 12.16737,-5.05804c4.75666,1.96319 7.02122,7.41071 5.05804,12.16737c-1.96319,4.75666 -7.41071,7.02122 -12.16737,5.05804c-4.75666,-1.96319 -7.02122,-7.41071 -5.05804,-12.16737z" fill="#ff0000" stroke="none" stroke-width="0.5" stroke-linecap="butt"/><path d="M345.32035,228.37119c1.96319,-4.75666 7.41071,-7.02122 12.16737,-5.05804c4.75666,1.96319 7.02122,7.41071 5.05804,12.16737c-1.96319,4.75666 -7.41071,7.02122 -12.16737,5.05804c-4.75666,-1.96319 -7.02122,-7.41071 -5.05804,-12.16737z" fill="#caff00" stroke="none" stroke-width="0.5" stroke-linecap="butt"/><path d="M366.44043,237.98392c1.96319,-4.75666 7.41071,-7.02122 12.16737,-5.05804c4.75666,1.96319 7.02122,7.41071 5.05804,12.16737c-1.96319,4.75666 -7.41071,7.02122 -12.16737,5.05804c-4.75666,-1.96319 -7.02122,-7.41071 -5.05804,-12.16737z" fill="#00ff33" stroke="none" stroke-width="0.5" stroke-linecap="butt"/><path d="M342.23535,262.43944c0,0 -10.21032,0.07015 -12.24919,-5.05553c-2.03886,-5.12572 0.83021,-10.56006 5.21352,-12.63197c4.3833,-2.07191 11.48359,4.73955 11.48359,4.73955l3.14724,7.57083z" fill="none" stroke="#585858" stroke-width="5" stroke-linecap="round"/><path d="M381.58177,269.81485l11.48359,4.73955l-44.02049,-18.16829" fill="none" stroke="#585858" stroke-width="5" stroke-linecap="round"/></g><g><path d="M221.65491,221.90695l-35.1114,-102.05571l102.05571,-35.1114l35.1114,102.05571z" fill="#0b0b0b" stroke="none" stroke-width="0" stroke-linecap="butt"/><path d="M224.03711,207.21172c-0.81771,-2.37677 0.44619,-4.96645 2.82295,-5.78415c2.37677,-0.81771 4.96645,0.44619 5.78415,2.82295c0.81771,2.37677 -0.44619,4.96645 -2.82295,5.78415c-2.37677,0.81771 -4.96645,-0.44619 -5.78415,-2.82295z" fill="#ff0000" stroke="#ff0000" stroke-width="2" stroke-linecap="butt"/><path d="M285.6183,191.9077l-2.63218,-7.65077l4.2421,-7.8767l8.19035,3.59942l2.63218,7.65077z" fill="#585858" stroke="#585858" stroke-width="2" stroke-linecap="butt"/><path d="M259.15431,200.47765l-2.63217,-7.65073l4.24212,-7.87675l8.19037,3.59946l2.63217,7.65073z" fill="#585858" stroke="#585858" stroke-width="2" stroke-linecap="butt"/><path d="M204.37036,149.27059c-2.04428,-5.94196 1.11542,-12.4161 7.05738,-14.46039c5.94196,-2.04428 12.4161,1.11542 14.46039,7.05738c2.04428,5.94196 -1.11542,12.4161 -7.05738,14.46039c-5.94196,2.04428 -12.4161,-1.11542 -14.46039,-7.05738z" fill="#ff0000" stroke="none" stroke-width="0.5" stroke-linecap="butt"/><path d="M230.19168,140.38698c-2.04428,-5.94196 1.11542,-12.4161 7.05738,-14.46039c5.94196,-2.04428 12.4161,1.11542 14.46039,7.05738c2.04428,5.94196 -1.11542,12.4161 -7.05738,14.46039c-5.94196,2.04428 -12.4161,-1.11542 -14.46039,-7.05738z" fill="#caff00" stroke="none" stroke-width="0.5" stroke-linecap="butt"/><path d="M257.29836,132.1307c-2.04428,-5.94196 1.11542,-12.4161 7.05738,-14.46039c5.94196,-2.04428 12.4161,1.11542 14.46039,7.05738c2.04428,5.94196 -1.11542,12.4161 -7.05738,14.46039c-5.94196,2.04428 -12.4161,-1.11542 -14.46039,-7.05738z" fill="#00ff33" stroke="none" stroke-width="0.5" stroke-linecap="butt"/><path d="M254.885,174.07896c0,0 -9.29405,8.31162 -15.30154,5.26436c-6.00751,-3.0473 -7.76956,-10.34162 -5.42887,-15.77971c2.34069,-5.43809 14.34516,-4.93533 14.34516,-4.93533l8.9976,4.39127z" fill="none" stroke="#585858" stroke-width="5" stroke-linecap="round"/><path d="M256.23166,163.03487l54.98986,-18.91879l-14.34516,4.93533" fill="none" stroke="#585858" stroke-width="5" stroke-linecap="round"/></g><text transform="translate(12.0223,76.4913) rotate(-2.085) scale(1.1507,1.1507)" font-size="40" xml:space="preserve" fill="#000000" fill-rule="nonzero" stroke="#000000" stroke-width="2" stroke-linecap="butt" stroke-linejoin="miter" stroke-miterlimit="10" stroke-dasharray="" stroke-dashoffset="0" font-family="Sans Serif" font-weight="normal" text-anchor="start" style="mix-blend-mode: normal"><tspan x="0" dy="0">BITCOIN FARM</tspan></text><g><path d="M106.62122,276.37307l-15.43874,-77.75187l77.75187,-15.43874l15.43874,77.75187z" fill="#0b0b0b" stroke="none" stroke-width="0" stroke-linecap="butt"/><path d="M177.16103,236.64586l-74.47318,14.78771" fill="none" stroke="#ff0000" stroke-width="5" stroke-linecap="round"/><path d="M105.38832,262.33184l75.40994,-14.97372" fill="none" stroke="#ff0000" stroke-width="5" stroke-linecap="round"/><path d="M101.98003,221.77509c-1.59231,-8.01913 3.61766,-15.81075 11.63678,-17.40306c8.01913,-1.59231 15.81075,3.61766 17.40306,11.63678c1.59231,8.01913 -3.61766,15.81075 -11.63678,17.40306c-8.01913,1.59231 -15.81075,-3.61766 -17.40306,-11.63678z" fill="#ad0000" stroke="#800202" stroke-width="2" stroke-linecap="butt"/><path d="M102.56367,228.03748l14.89321,-9.0432l-2.39991,17.39701z" fill="#800202" stroke="none" stroke-width="0" stroke-linecap="butt"/><path d="M124.41025,235.02092l-8.86463,-15.16028l17.21844,2.66698z" data-paper-data="{&quot;index&quot;:null}" fill="#800202" stroke="none" stroke-width="0" stroke-linecap="butt"/><path d="M121.36509,204.49306l-4.13657,16.92561l-10.60453,-13.99852z" fill="#800202" stroke="none" stroke-width="0" stroke-linecap="butt"/><path d="M140.01216,214.7101c-1.59231,-8.01913 3.61766,-15.81075 11.63678,-17.40306c8.01913,-1.59231 15.81075,3.61766 17.40306,11.63678c1.59231,8.01913 -3.61766,15.81075 -11.63678,17.40306c-8.01913,1.59231 -15.81075,-3.61766 -17.40306,-11.63678z" fill="#ad0000" stroke="#800202" stroke-width="2" stroke-linecap="butt"/><path d="M140.3458,220.97248l14.89321,-9.0432l-2.39991,17.39701z" fill="#800202" stroke="none" stroke-width="0" stroke-linecap="butt"/><path d="M161.69238,227.95593l-8.86463,-15.16028l17.21844,2.66698z" data-paper-data="{&quot;index&quot;:null}" fill="#800202" stroke="none" stroke-width="0" stroke-linecap="butt"/><path d="M159.14721,197.42807l-4.13657,16.92561l-10.60453,-13.99852z" fill="#800202" stroke="none" stroke-width="0" stroke-linecap="butt"/><path d="M122.3372,254.90199l-0.94038,-4.73588l41.53012,-8.2464l0.94038,4.73588z" fill="none" stroke="#ff0000" stroke-width="6.5" stroke-linecap="butt"/></g><g><path d="M89.62122,191.87307l-15.43874,-77.75187l77.75188,-15.43874l15.43874,77.75187z" fill="#0b0b0b" stroke="none" stroke-width="0" stroke-linecap="butt"/><path d="M160.16103,152.14586l-74.47318,14.78771" fill="none" stroke="#ff0000" stroke-width="5" stroke-linecap="round"/><path d="M163.79826,162.85812l-75.40993,14.97371" fill="none" stroke="#ff0000" stroke-width="5" stroke-linecap="round"/><path d="M84.98003,137.27509c-1.59231,-8.01913 3.61766,-15.81075 11.63679,-17.40306c8.01913,-1.59231 15.81075,3.61766 17.40306,11.63679c1.59231,8.01913 -3.61766,15.81074 -11.63679,17.40305c-8.01913,1.59231 -15.81075,-3.61765 -17.40306,-11.63678z" fill="#ad0000" stroke="#800202" stroke-width="2" stroke-linecap="butt"/><path d="M85.56367,143.53748l14.89321,-9.0432l-2.39991,17.39701z" fill="#800202" stroke="none" stroke-width="0" stroke-linecap="butt"/><path d="M107.41025,150.52092l-8.86463,-15.16027l17.21844,2.66698z" data-paper-data="{&quot;index&quot;:null}" fill="#800202" stroke="none" stroke-width="0" stroke-linecap="butt"/><path d="M104.3651,119.99307l-4.13656,16.9256l-10.60453,-13.99852z" fill="#800202" stroke="none" stroke-width="0" stroke-linecap="butt"/><path d="M123.01217,130.2101c-1.59231,-8.01913 3.61765,-15.81074 11.63678,-17.40305c8.01913,-1.59231 15.81075,3.61765 17.40306,11.63678c1.59231,8.01913 -3.61766,15.81075 -11.63679,17.40306c-8.01912,1.59231 -15.81074,-3.61766 -17.40305,-11.63679z" fill="#ad0000" stroke="#800202" stroke-width="2" stroke-linecap="butt"/><path d="M123.3458,136.47249l14.89321,-9.0432l-2.39991,17.39701z" fill="#800202" stroke="none" stroke-width="0" stroke-linecap="butt"/><path d="M144.69238,143.45593l-8.86463,-15.16028l17.21844,2.66698z" data-paper-data="{&quot;index&quot;:null}" fill="#800202" stroke="none" stroke-width="0" stroke-linecap="butt"/><path d="M142.14723,112.92807l-4.13657,16.92561l-10.60453,-13.99851z" fill="#800202" stroke="none" stroke-width="0" stroke-linecap="butt"/><path d="M105.33721,170.40199l-0.94037,-4.73587l41.53012,-8.2464l0.94038,4.73587z" fill="none" stroke="#ff0000" stroke-width="6.5" stroke-linecap="butt"/></g><path d="M159.75966,167.61393c0.09571,-2.49817 2.59388,-2.40246 2.59388,-2.40246l3.40649,0.14386c3.55666,0.89025 6.38857,1.17174 9.38332,3.39453c5.67214,4.21004 5.30285,13.00618 7.13543,19.11871c1.63753,3.93028 3.53243,8.57541 6.24929,11.9271c2.53384,3.12589 6.38253,4.92661 9.54002,7.2302c6.14118,4.48039 11.53236,10.18811 18.57786,13.41718c11.89421,5.45133 25.38881,8.38675 38.35522,9.76777c0.29751,-0.01366 0.59539,-0.02839 0.89359,-0.04422c0.55781,-0.52715 1.115,-1.05074 1.6756,-1.56346c3.39561,-3.10555 8.06319,-7.59341 8.53954,-12.53229c0.47018,-4.875 -0.25276,-10.31034 -2.18337,-14.79176c-1.14221,-2.65134 -2.53339,-5.25251 -3.12015,-8.07916c0,0 -0.49029,-2.45145 1.96116,-2.94174c2.45145,-0.49029 2.94174,1.96116 2.94174,1.96116c0.48711,2.55563 1.85935,4.86105 2.87985,7.25418c2.20035,5.15991 3.16704,11.59736 2.4833,17.20824c-0.59723,4.90095 -3.7463,9.19022 -7.19494,12.76493c8.23511,-1.08613 16.3718,-3.34891 23.35624,-7.83643c2.92857,-1.88161 6.12012,-3.70569 7.35325,-7.12055c3.67044,-10.16435 -1.17234,-20.40315 -5.27174,-29.41223c0,0 -1.03451,-2.27592 1.24141,-3.31042c2.27592,-1.03451 3.31042,1.24141 3.31042,1.24141c2.65253,5.84206 5.69547,11.1885 6.46287,17.72854c0.75187,6.40769 0.78778,14.6473 -3.51497,19.94184c-0.38771,0.47708 -6.75932,5.06132 -6.86639,5.13017c-9.45889,6.08259 -20.80458,8.47536 -31.936,9.22769c-2.54061,2.37641 -5.14698,4.70784 -8.13085,6.48072c-6.06628,3.60432 -12.73622,5.5794 -19.61909,6.84945c-16.01382,2.93486 -32.20343,2.55186 -48.22427,5.4691l-3.66667,0.66667c0,0 -2.45967,0.44721 -2.90689,-2.01246c-0.44721,-2.45967 2.01246,-2.90689 2.01246,-2.90689l3.66667,-0.66667c16.02193,-2.90888 32.2109,-2.52964 48.21667,-5.46771c6.28716,-1.14571 12.39605,-2.92868 17.93997,-6.21374c1.23848,-0.73386 2.40557,-1.58052 3.52818,-2.49122c-12.36043,-1.57293 -25.05852,-4.55004 -36.29237,-9.76772c-7.35206,-3.41474 -12.98898,-9.24015 -19.42214,-13.91615c-3.52488,-2.56209 -7.62941,-4.63518 -10.45998,-8.10313c-3.09089,-3.78688 -5.23223,-8.96211 -7.08404,-13.40624c-1.38174,-4.60325 -1.20345,-13.77027 -5.53124,-16.88129c-1.99228,-1.43215 -4.73064,-1.80148 -6.98478,-2.36416l-2.89209,-0.09745c0,0 -2.49817,-0.09571 -2.40246,-2.59388z" fill="#000000" stroke="none" stroke-width="0.5" stroke-linecap="butt"/><g><path d="M238.62123,320.7064l-15.43874,-77.75187l77.75187,-15.43874l15.43874,77.75187z" fill="#0b0b0b" stroke="none" stroke-width="0" stroke-linecap="butt"/><path d="M309.16104,280.97919l-74.47318,14.78771" fill="none" stroke="#ff0000" stroke-width="5" stroke-linecap="round"/><path d="M237.38833,306.66517l75.40994,-14.97372" fill="none" stroke="#ff0000" stroke-width="5" stroke-linecap="round"/><path d="M233.98004,266.10842c-1.59231,-8.01913 3.61766,-15.81075 11.63678,-17.40306c8.01913,-1.59231 15.81075,3.61766 17.40306,11.63678c1.59231,8.01913 -3.61766,15.81075 -11.63678,17.40306c-8.01913,1.59231 -15.81075,-3.61766 -17.40306,-11.63678z" fill="#ad0000" stroke="#800202" stroke-width="2" stroke-linecap="butt"/><path d="M234.56368,272.37081l14.89321,-9.0432l-2.39991,17.39701z" fill="#800202" stroke="none" stroke-width="0" stroke-linecap="butt"/><path d="M256.41026,279.35425l-8.86463,-15.16028l17.21844,2.66698z" data-paper-data="{&quot;index&quot;:null}" fill="#800202" stroke="none" stroke-width="0" stroke-linecap="butt"/><path d="M253.3651,248.82639l-4.13657,16.92561l-10.60453,-13.99852z" fill="#800202" stroke="none" stroke-width="0" stroke-linecap="butt"/><path d="M272.01217,259.04343c-1.59231,-8.01913 3.61766,-15.81075 11.63678,-17.40306c8.01913,-1.59231 15.81075,3.61766 17.40306,11.63678c1.59231,8.01913 -3.61766,15.81075 -11.63678,17.40306c-8.01913,1.59231 -15.81075,-3.61766 -17.40306,-11.63678z" fill="#ad0000" stroke="#800202" stroke-width="2" stroke-linecap="butt"/><path d="M272.34581,265.30581l14.89321,-9.0432l-2.39991,17.39701z" fill="#800202" stroke="none" stroke-width="0" stroke-linecap="butt"/><path d="M293.69239,272.28926l-8.86463,-15.16028l17.21844,2.66698z" data-paper-data="{&quot;index&quot;:null}" fill="#800202" stroke="none" stroke-width="0" stroke-linecap="butt"/><path d="M291.14723,241.7614l-4.13657,16.92561l-10.60453,-13.99852z" fill="#800202" stroke="none" stroke-width="0" stroke-linecap="butt"/><path d="M254.33721,299.23532l-0.94038,-4.73588l41.53012,-8.2464l0.94038,4.73588z" fill="none" stroke="#ff0000" stroke-width="6.5" stroke-linecap="butt"/></g><path d="M298.31613,305.11425c0,-2.5 2.5,-2.5 2.5,-2.5h1c2.58559,0.01311 5.13491,-0.61561 7.69454,-0.98127c2.55182,-0.36455 6.58581,0.19193 8.81431,-1.52534c0.71498,-0.55096 0.80893,-1.67514 1.50248,-2.25283c1.27236,-1.05981 3.02343,-1.4524 4.26345,-2.54988c0.96578,-0.85477 1.19964,-2.37301 2.20773,-3.17745c0.74093,-0.59125 2.15281,-0.02314 2.73782,-0.76902c0.85837,-1.09442 0.41909,-2.79533 1.03563,-4.04211c1.50257,-3.03857 3.85773,-5.58076 5.60031,-8.48835c0,0 1.28624,-2.14373 3.42997,-0.85749c2.14373,1.28624 0.85749,3.42997 0.85749,3.42997c-1.68394,2.80352 -3.91616,5.27308 -5.42662,8.17376c-0.86815,1.6672 -0.76621,3.8256 -1.93745,5.29578c-0.72419,0.90903 -2.3555,0.50385 -3.26218,1.23098c-0.86944,0.69727 -0.95874,2.08272 -1.79227,2.82255c-1.25452,1.1135 -3.02309,1.52096 -4.31148,2.59508c-0.82836,0.69059 -1.03875,1.98421 -1.92259,2.60221c-3.22563,2.25544 -7.57314,1.95858 -11.18569,2.47466c-2.7612,0.39446 -5.51625,1.0066 -8.30546,1.01873h-1c0,0 -2.5,0 -2.5,-2.5z" fill="#000000" stroke="none" stroke-width="0.5" stroke-linecap="butt"/><path d="M39.67174,302.47986l-17.15159,-53.4748l53.4748,-17.15159l17.15159,53.4748z" fill="#0c8700" stroke="#0c6900" stroke-width="3.5" stroke-linecap="butt"/><g fill="none" stroke="#83ff4d" stroke-width="3.5" stroke-linecap="round"><path d="M38.05104,272.8259l38.85579,-12.46267"/><path d="M50.93186,246.84363l12.77115,39.81756"/><path d="M69.1584,245.13443l-23.32264,45.34825"/><path d="M81.22551,279.44992l-47.12661,-24.23725"/></g><path d="M48.68721,284.95029l-8.63749,-26.92976l26.92976,-8.63749l8.63749,26.92976z" fill="#780202" stroke="#850202" stroke-width="3.5" stroke-linecap="butt"/><path d="M83.69809,282.87818c2.23607,-1.11803 3.3541,1.11803 3.3541,1.11803l0.5317,1.35027c1.58049,1.588 3.30304,3.48648 5.30666,4.51042c3.18096,1.62561 3.86653,0.11232 7.38186,0.79934c1.52133,0.29732 2.9014,1.09234 4.3521,1.63851c4.33949,2.61032 7.36282,2.94538 11.91733,4.96153c1.51412,0.67026 2.74575,1.88364 4.25742,2.5594c5.58585,2.49702 12.3846,3.11502 18.22326,5.00554c6.11459,1.97986 12.2777,4.14115 18.46094,5.88375c2.49144,0.70215 6.81057,1.30853 9.13651,2.04204c4.15878,1.31152 7.66216,3.95095 11.99317,4.96763c6.3415,1.48863 13.13533,1.96149 19.58031,2.92825c4.86736,0.75616 10.25248,1.04652 14.99827,2.34625c4.04192,1.10696 7.8629,4.00501 12.0299,4.65822c2.69207,0.42201 5.46478,-0.08761 8.17174,0.22497c4.96491,0.5733 9.81197,2.13673 14.76975,2.76391c7.81539,0.98869 15.84024,0.98645 23.70328,0.97536c8.28162,-0.01168 16.56364,0.1781 24.77251,-0.99105c5.29119,0.03783 7.36764,-1.08116 12.34289,-2.86296c2.20362,-0.78919 4.67127,-0.84409 6.7599,-1.90067c1.45211,-0.73459 2.46056,-2.17375 3.89305,-2.94591c1.31878,-0.71087 3.03092,-0.58321 4.25541,-1.44643c1.29593,-0.91359 1.81039,-2.64825 3.01516,-3.67908c1.29383,-1.10703 3.01896,-1.60829 4.37228,-2.64174c5.33124,-4.07116 9.65596,-9.28374 14.16287,-14.18627c4.15412,-4.51877 7.76658,-7.95001 10.05447,-13.77169c0,0 0.92848,-2.32119 3.24967,-1.39272c2.32119,0.92848 1.39272,3.24967 1.39272,3.24967c-2.59831,6.39883 -6.43326,10.31779 -11.0166,15.29938c-4.69239,5.10011 -9.22326,10.49869 -14.76606,14.74266c-1.29464,0.99127 -2.96155,1.44568 -4.20265,2.50321c-1.33044,1.13367 -1.97988,2.97868 -3.41007,3.98357c-1.37884,0.9688 -3.26306,0.94262 -4.74442,1.74595c-1.4997,0.81328 -2.57787,2.29751 -4.10695,3.05409c-2.25216,1.11436 -4.87537,1.24956 -7.2401,2.09933c-5.20385,1.87001 -8.06086,3.10111 -13.65711,3.13704c-8.31937,1.19212 -16.7264,0.99179 -25.1199,1.00362c-8.07513,0.01139 -16.31162,0.00048 -24.33786,-1.01489c-4.94057,-0.62501 -9.77249,-2.1824 -14.71775,-2.75761c-2.78494,-0.32393 -5.64057,0.19659 -8.4072,-0.25794c-4.40883,-0.72433 -8.27793,-3.60244 -12.53963,-4.76959c-4.56055,-1.249 -9.75579,-1.49943 -14.4322,-2.22594c-6.57255,-0.98587 -13.51512,-1.46507 -19.97714,-3.00537c-4.50388,-1.07355 -8.13542,-3.75298 -12.44938,-5.09875c-2.88844,-0.90107 -5.95101,-1.13791 -8.86349,-1.95796c-6.2515,-1.76019 -12.4868,-3.94188 -18.66742,-5.94577c-6.01197,-1.94921 -12.87247,-2.6255 -18.64839,-5.16495c-1.53563,-0.67516 -2.78565,-1.90188 -4.31751,-2.58556c-4.3922,-1.96027 -7.83942,-2.49884 -12.08267,-5.03847c-3.9349,-1.55776 -7.82117,-0.51277 -11.69111,-2.4172c-2.74657,-1.35162 -4.61375,-3.41867 -6.69334,-5.48958l-1.4683,-2.64973c0,0 -1.11803,-2.23607 1.11803,-3.3541z" fill="#000000" stroke="none" stroke-width="0.5" stroke-linecap="butt"/></g></g></svg>