<svg version="1.1" xmlns="http://www.w3.org/2000/svg" xmlns:xlink="http://www.w3.org/1999/xlink" width="25.14285" height="23.71429" viewBox="0,0,25.14285,23.71429"><g transform="translate(-227.45635,-168.14285)"><g data-paper-data="{&quot;isPaintingLayer&quot;:true}" fill-rule="nonzero" stroke-linejoin="miter" stroke-miterlimit="10" stroke-dasharray="" stroke-dashoffset="0" style="mix-blend-mode: normal"><path d="M228.14286,191.85714v-23.71429h23.71429v23.71429z" fill="#0b0b0b" stroke="none" stroke-width="0" stroke-linecap="butt"/><path d="M228.45635,184.2366h22.71429" fill="none" stroke="#ff0000" stroke-width="2" stroke-linecap="round"/><path d="M251.5992,187.66518h-23" fill="none" stroke="#ff0000" stroke-width="2" stroke-linecap="round"/><path d="M229.74206,175.52232c0,-2.44583 1.98274,-4.42857 4.42857,-4.42857c2.44583,0 4.42857,1.98274 4.42857,4.42857c0,2.44583 -1.98274,4.42857 -4.42857,4.42857c-2.44583,0 -4.42857,-1.98274 -4.42857,-4.42857z" fill="#ad0000" stroke="#800202" stroke-width="2" stroke-linecap="butt"/><path d="M229.54844,177.3939l4.89702,-1.7858l-1.71784,4.96498z" fill="#800202" stroke="none" stroke-width="0" stroke-linecap="butt"/><path d="M235.552,180.71594l-1.71784,-4.96498l4.89702,1.7858z" data-paper-data="{&quot;index&quot;:null}" fill="#800202" stroke="none" stroke-width="0" stroke-linecap="butt"/><path d="M236.3638,171.56615l-2.19996,4.72547l-2.29607,-4.72546z" fill="#800202" stroke="none" stroke-width="0" stroke-linecap="butt"/><path d="M241.31348,175.66517c0,-2.44583 1.98274,-4.42857 4.42857,-4.42857c2.44583,0 4.42857,1.98274 4.42857,4.42857c0,2.44583 -1.98274,4.42857 -4.42857,4.42857c-2.44583,0 -4.42857,-1.98274 -4.42857,-4.42857z" fill="#ad0000" stroke="#800202" stroke-width="2" stroke-linecap="butt"/><path d="M241.11986,177.53675l4.89702,-1.7858l-1.71784,4.96498z" fill="#800202" stroke="none" stroke-width="0" stroke-linecap="butt"/><path d="M247.12342,180.85879l-1.71784,-4.96498l4.89702,1.7858z" data-paper-data="{&quot;index&quot;:null}" fill="#800202" stroke="none" stroke-width="0" stroke-linecap="butt"/><path d="M247.93522,171.709l-2.19996,4.72547l-2.29607,-4.72546z" fill="#800202" stroke="none" stroke-width="0" stroke-linecap="butt"/><path d="M233.79938,185.97415v-1.44444h12.66667v1.44444z" fill="none" stroke="#ff0000" stroke-width="2" stroke-linecap="butt"/></g></g></svg>