<svg version="1.1" xmlns="http://www.w3.org/2000/svg" xmlns:xlink="http://www.w3.org/1999/xlink" width="516.51652" height="396.3964" viewBox="0,0,516.51652,396.3964"><defs><linearGradient x1="240.29195" y1="-5.20085" x2="240.29195" y2="391.19555" gradientUnits="userSpaceOnUse" id="color-1"><stop offset="0" stop-color="#12a300"/><stop offset="1" stop-color="#114f00"/></linearGradient></defs><g transform="translate(17.96632,5.20085)"><g data-paper-data="{&quot;isPaintingLayer&quot;:true}" fill-rule="nonzero" stroke-linejoin="miter" stroke-miterlimit="10" stroke-dasharray="" stroke-dashoffset="0" style="mix-blend-mode: normal"><path d="M-17.96632,391.19555v-396.3964h516.51652v396.3964z" fill="url(#color-1)" stroke="none" stroke-width="0" stroke-linecap="butt"/><text transform="translate(10.56222,59.36372) scale(1.41099,1.41099)" font-size="40" xml:space="preserve" fill="#000000" fill-rule="nonzero" stroke="none" stroke-width="1" stroke-linecap="butt" stroke-linejoin="miter" stroke-miterlimit="10" stroke-dasharray="" stroke-dashoffset="0" font-family="Sans Serif" font-weight="normal" text-anchor="start" style="mix-blend-mode: normal"><tspan x="0" dy="0">HELP</tspan></text><text transform="translate(12.48638,346.35178) scale(0.5,0.5)" font-size="40" xml:space="preserve" fill="#000300" fill-rule="nonzero" stroke="none" stroke-width="1" stroke-linecap="butt" stroke-linejoin="miter" stroke-miterlimit="10" stroke-dasharray="" stroke-dashoffset="0" font-family="Sans Serif" font-weight="normal" text-anchor="start" style="mix-blend-mode: normal"><tspan x="0" dy="0">(Click to continue)</tspan></text><text transform="translate(208.48638,48.95539) scale(0.5,0.5)" font-size="40" xml:space="preserve" fill="#000000" fill-rule="nonzero" stroke="none" stroke-width="1" stroke-linecap="butt" stroke-linejoin="miter" stroke-miterlimit="10" stroke-dasharray="" stroke-dashoffset="0" font-family="Sans Serif" font-weight="normal" text-anchor="start" style="mix-blend-mode: normal"><tspan x="0" dy="0">BUILDING LIST</tspan></text><path d="M11.47622,120.85715v-34.71429h34.71429v34.71429z" fill="#0b0b0b" stroke="none" stroke-width="0" stroke-linecap="butt"/><path d="M11.93512,109.70178h33.25043" fill="none" stroke="#ffdf00" stroke-width="2" stroke-linecap="round"/><path d="M12.14423,114.72072h33.66867" fill="none" stroke="#ffdf00" stroke-width="2" stroke-linecap="round"/><path d="M13.81722,96.94533c0,-3.58034 2.90244,-6.48279 6.48279,-6.48279c3.58034,0 6.48279,2.90244 6.48279,6.48279c0,3.58034 -2.90244,6.48279 -6.48279,6.48279c-3.58034,0 -6.48279,-2.90244 -6.48279,-6.48279z" fill="#aeaeae" stroke="#808080" stroke-width="2" stroke-linecap="butt"/><path d="M13.53378,99.68505l7.16853,-2.61415l-2.51467,7.26801z" fill="#808080" stroke="none" stroke-width="0" stroke-linecap="butt"/><path d="M22.32213,104.54804l-2.51467,-7.26801l7.16853,2.61415z" data-paper-data="{&quot;index&quot;:null}" fill="#808080" stroke="none" stroke-width="0" stroke-linecap="butt"/><path d="M23.51049,91.15407l-3.22042,6.9174l-3.36111,-6.91739z" fill="#808080" stroke="none" stroke-width="0" stroke-linecap="butt"/><path d="M52.14288,121.85714v-36.71429h36.71429v36.71429z" fill="#0b0b0b" stroke="none" stroke-width="0" stroke-linecap="butt"/><path d="M52.62822,110.05907h35.1661" fill="none" stroke="#66ff00" stroke-width="2" stroke-linecap="round"/><path d="M88.45781,115.36717h-35.60843" fill="none" stroke="#66ff00" stroke-width="2" stroke-linecap="round"/><path d="M54.61874,96.56769c0,-3.78662 3.06966,-6.85628 6.85628,-6.85628c3.78662,0 6.85628,3.06966 6.85628,6.85628c0,3.78662 -3.06966,6.85628 -6.85628,6.85628c-3.78662,0 -6.85628,-3.06966 -6.85628,-6.85628z" fill="#aeaeae" stroke="#808080" stroke-width="2" stroke-linecap="butt"/><path d="M54.31898,99.46525l7.58153,-2.76476l-2.65955,7.68675z" fill="#808080" stroke="none" stroke-width="0" stroke-linecap="butt"/><path d="M63.61365,104.60841l-2.65955,-7.68675l7.58153,2.76476z" data-paper-data="{&quot;index&quot;:null}" fill="#808080" stroke="none" stroke-width="0" stroke-linecap="butt"/><path d="M64.87047,90.44277l-3.40596,7.31594l-3.55476,-7.31592z" fill="#808080" stroke="none" stroke-width="0" stroke-linecap="butt"/><path d="M72.53352,96.78885c0,-3.78662 3.06966,-6.85628 6.85628,-6.85628c3.78662,0 6.85628,3.06966 6.85628,6.85628c0,3.78662 -3.06966,6.85628 -6.85628,6.85628c-3.78662,0 -6.85628,-3.06966 -6.85628,-6.85628z" fill="#aeaeae" stroke="#808080" stroke-width="2" stroke-linecap="butt"/><path d="M72.23377,99.68641l7.58153,-2.76476l-2.65955,7.68675z" fill="#808080" stroke="none" stroke-width="0" stroke-linecap="butt"/><path d="M81.52844,104.82957l-2.65955,-7.68675l7.58153,2.76476z" data-paper-data="{&quot;index&quot;:null}" fill="#808080" stroke="none" stroke-width="0" stroke-linecap="butt"/><path d="M82.78526,90.66393l-3.40596,7.31594l-3.55476,-7.31592z" fill="#808080" stroke="none" stroke-width="0" stroke-linecap="butt"/><path d="M94.14288,121.85714v-34.71429h34.71429v34.71429z" fill="#0b0b0b" stroke="none" stroke-width="0" stroke-linecap="butt"/><path d="M94.60178,110.70177h33.25043" fill="none" stroke="#ff0000" stroke-width="2" stroke-linecap="round"/><path d="M128.47956,115.72071h-33.66867" fill="none" stroke="#ff0000" stroke-width="2" stroke-linecap="round"/><path d="M96.48387,97.94532c0,-3.58034 2.90244,-6.48279 6.48279,-6.48279c3.58034,0 6.48279,2.90244 6.48279,6.48279c0,3.58034 -2.90244,6.48279 -6.48279,6.48279c-3.58034,0 -6.48279,-2.90244 -6.48279,-6.48279z" fill="#ad0000" stroke="#800202" stroke-width="2" stroke-linecap="butt"/><path d="M96.20044,100.68504l7.16853,-2.61415l-2.51467,7.26801z" fill="#800202" stroke="none" stroke-width="0" stroke-linecap="butt"/><path d="M104.98878,105.54803l-2.51467,-7.26801l7.16853,2.61415z" data-paper-data="{&quot;index&quot;:null}" fill="#800202" stroke="none" stroke-width="0" stroke-linecap="butt"/><path d="M106.17714,92.15406l-3.22042,6.9174l-3.36111,-6.91739z" fill="#800202" stroke="none" stroke-width="0" stroke-linecap="butt"/><path d="M113.42276,98.15443c0,-3.58034 2.90244,-6.48279 6.48279,-6.48279c3.58034,0 6.48279,2.90244 6.48279,6.48279c0,3.58034 -2.90244,6.48279 -6.48279,6.48279c-3.58034,0 -6.48279,-2.90244 -6.48279,-6.48279z" fill="#ad0000" stroke="#800202" stroke-width="2" stroke-linecap="butt"/><path d="M113.13933,100.89416l7.16853,-2.61415l-2.51467,7.26801z" fill="#800202" stroke="none" stroke-width="0" stroke-linecap="butt"/><path d="M121.92767,105.75714l-2.51467,-7.26801l7.16853,2.61415z" data-paper-data="{&quot;index&quot;:null}" fill="#800202" stroke="none" stroke-width="0" stroke-linecap="butt"/><path d="M123.11603,92.36317l-3.22042,6.9174l-3.36111,-6.91739z" fill="#800202" stroke="none" stroke-width="0" stroke-linecap="butt"/><path d="M102.4232,113.91196v-2.11445h18.54217v2.11445z" fill="none" stroke="#ff0000" stroke-width="3" stroke-linecap="butt"/><text transform="translate(137.35676,109.47861) scale(0.5,0.5)" font-size="40" xml:space="preserve" fill="#000000" fill-rule="nonzero" stroke="none" stroke-width="1" stroke-linecap="butt" stroke-linejoin="miter" stroke-miterlimit="10" stroke-dasharray="" stroke-dashoffset="0" font-family="Sans Serif" font-weight="normal" text-anchor="start" style="mix-blend-mode: normal"><tspan x="0" dy="0">Graphics Cards (Level 1, 2, 3)</tspan></text><g stroke-linecap="butt"><path d="M9.42215,164.83011v-34.2248h34.2248v34.2248z" fill="#0b0b0b" stroke="none" stroke-width="0"/><path d="M11.65251,160.66934c0,-0.79706 0.64616,-1.44321 1.44321,-1.44321c0.79706,0 1.44321,0.64616 1.44321,1.44321c0,0.79706 -0.64616,1.44321 -1.44321,1.44321c-0.79706,0 -1.44321,-0.64616 -1.44321,-1.44321z" fill="none" stroke="#ff0000" stroke-width="2"/><path d="M31.69716,162.43326v-2.56572l2.08464,-1.92428l2.08464,1.92428v2.56572z" fill="#585858" stroke="#585858" stroke-width="2"/><path d="M31.5368,153.77398v-2.5657l2.08465,-1.9243l2.08464,1.9243v2.5657z" fill="#585858" stroke="#585858" stroke-width="2"/></g><g><path d="M52.14288,165.52381v-34.18901h34.18901v34.18901z" fill="#0b0b0b" stroke="none" stroke-width="0" stroke-linecap="butt"/><path d="M54.05872,161.67956c0,-0.79623 0.64548,-1.44171 1.44171,-1.44171c0.79623,0 1.44171,0.64548 1.44171,1.44171c0,0.79623 -0.64548,1.44171 -1.44171,1.44171c-0.79623,0 -1.44171,-0.64548 -1.44171,-1.44171z" fill="none" stroke="#ff0000" stroke-width="2" stroke-linecap="butt"/><path d="M74.0824,163.12946v-2.56303l2.08246,-1.92226l2.08246,1.92226v2.56303z" fill="#585858" stroke="#585858" stroke-width="2" stroke-linecap="butt"/><path d="M65.27198,162.96928v-2.56302l2.08247,-1.92228l2.08246,1.92228v2.56302z" fill="#585858" stroke="#585858" stroke-width="2" stroke-linecap="butt"/><path d="M54.13881,141.98447c0,-1.99057 1.61368,-3.60426 3.60426,-3.60426c1.99057,0 3.60426,1.61368 3.60426,3.60426c0,1.99057 -1.61368,3.60426 -3.60426,3.60426c-1.99057,0 -3.60426,-1.61368 -3.60426,-3.60426z" fill="#ff0000" stroke="none" stroke-width="0.5" stroke-linecap="butt"/><path d="M62.78905,142.29665c0,-1.99057 1.61368,-3.60426 3.60426,-3.60426c1.99057,0 3.60426,1.61368 3.60426,3.60426c0,1.99057 -1.61368,3.60426 -3.60426,3.60426c-1.99057,0 -3.60426,-1.61368 -3.60426,-3.60426z" fill="#caff00" stroke="none" stroke-width="0.5" stroke-linecap="butt"/><path d="M71.75965,142.30485c0,-1.99057 1.61368,-3.60426 3.60426,-3.60426c1.99057,0 3.60426,1.61368 3.60426,3.60426c0,1.99057 -1.61368,3.60426 -3.60426,3.60426c-1.99057,0 -3.60426,-1.61368 -3.60426,-3.60426z" fill="#00ff33" stroke="none" stroke-width="0.5" stroke-linecap="butt"/><path d="M66.71369,154.62163c0,0 -3.64058,1.53191 -5.12607,0c-1.48549,-1.53192 -1.26158,-3.89851 0,-5.28625c1.26158,-1.38774 4.80568,0 4.80568,0l2.24265,2.24265z" fill="none" stroke="#585858" stroke-width="2" stroke-linecap="round"/><path d="M81.77149,151.41783h4.80568h-18.42178" fill="none" stroke="#585858" stroke-width="2" stroke-linecap="round"/></g><g><path d="M95.14287,164.85714v-33.50869h33.50869v33.50869z" fill="#0b0b0b" stroke="none" stroke-width="0" stroke-linecap="butt"/><path d="M97.32656,160.78342c0,-0.78038 0.63264,-1.41302 1.41302,-1.41302c0.78038,0 1.41302,0.63263 1.41302,1.41302c0,0.78038 -0.63264,1.41302 -1.41302,1.41302c-0.78038,0 -1.41302,-0.63264 -1.41302,-1.41302z" fill="none" stroke="#ff0000" stroke-width="2" stroke-linecap="butt"/><path d="M116.9518,162.51044v-2.51203l2.04102,-1.88402l2.04102,1.88402v2.51203z" fill="#585858" stroke="#585858" stroke-width="2" stroke-linecap="butt"/><path d="M108.31669,162.35344v-2.51202l2.04103,-1.88404l2.04102,1.88404v2.51202z" fill="#585858" stroke="#585858" stroke-width="2" stroke-linecap="butt"/><path d="M97.40507,141.7862c0,-1.95096 1.58158,-3.53254 3.53254,-3.53254c1.95096,0 3.53254,1.58158 3.53254,3.53254c0,1.95096 -1.58158,3.53254 -3.53254,3.53254c-1.95096,0 -3.53254,-1.58157 -3.53254,-3.53254z" fill="#ff0000" stroke="none" stroke-width="0.5" stroke-linecap="butt"/><path d="M105.88317,141.7862c0,-1.95096 1.58158,-3.53254 3.53254,-3.53254c1.95096,0 3.53254,1.58158 3.53254,3.53254c0,1.95096 -1.58158,3.53254 -3.53254,3.53254c-1.95096,0 -3.53254,-1.58157 -3.53254,-3.53254z" fill="#caff00" stroke="none" stroke-width="0.5" stroke-linecap="butt"/><path d="M114.67527,142.1002c0,-1.95096 1.58158,-3.53254 3.53254,-3.53254c1.95096,0 3.53254,1.58158 3.53254,3.53254c0,1.95096 -1.58158,3.53254 -3.53254,3.53254c-1.95096,0 -3.53254,-1.58158 -3.53254,-3.53254z" fill="#00ff33" stroke="none" stroke-width="0.5" stroke-linecap="butt"/><path d="M109.88671,154.1719c0,0 -3.56814,1.50143 -5.02407,0c-1.45593,-1.50144 -1.23647,-3.82093 0,-5.18106c1.23647,-1.36013 4.71006,0 4.71006,0l2.19803,2.19803z" fill="none" stroke="#fbff00" stroke-width="2" stroke-linecap="round"/><path d="M124.6449,151.03185h4.71005h-18.05522" fill="none" stroke="#fbff00" stroke-width="2" stroke-linecap="round"/><path d="M98.89658,136.76212v-1.70458l1.38498,-1.27845l1.38499,1.27845v1.70458z" fill="#585858" stroke="#585858" stroke-width="2" stroke-linecap="butt"/></g><text transform="translate(138.29031,148.29568) scale(0.5,0.5)" font-size="40" xml:space="preserve" fill="#000000" fill-rule="nonzero" stroke="none" stroke-width="1" stroke-linecap="butt" stroke-linejoin="miter" stroke-miterlimit="10" stroke-dasharray="" stroke-dashoffset="0" font-family="Sans Serif" font-weight="normal" text-anchor="start" style="mix-blend-mode: normal"><tspan x="0" dy="0">Power Supplies (Level 1, 2, 3)</tspan></text><path d="M8.7381,213.59524v-35.85714h35.85714v35.85714z" fill="#0c8700" stroke="#0c6900" stroke-width="3.5" stroke-linecap="butt"/><path d="M17.63789,204.69544v-18.05756h18.05756v18.05756z" fill="#252525" stroke="#323232" stroke-width="1" stroke-linecap="butt"/><path d="M53.7381,213.2619v-35.85714h35.85714v35.85714z" fill="#0c8700" stroke="#0c6900" stroke-width="3.5" stroke-linecap="butt"/><g fill="none" stroke="#83ff4d" stroke-width="1" stroke-linecap="round"><path d="M58.53552,194.91638h26.05447"/><path d="M71.43378,181.63117v26.69938"/><path d="M59.82535,207.16972l23.02338,-23.02338"/><path d="M59.56738,183.43693l23.92626,23.92626"/></g><path d="M62.63789,204.36211v-18.05756h18.05756v18.05756z" fill="#780202" stroke="#850202" stroke-width="1" stroke-linecap="butt"/><path d="M96.7381,213.92857v-36.52381h36.52381v36.52381z" fill="#0c8700" stroke="#0c6900" stroke-width="3.5" stroke-linecap="butt"/><g fill="none" stroke="#83ff4d" stroke-width="1" stroke-linecap="round"><path d="M101.62471,195.24197h26.53888"/><path d="M114.76278,181.70975v27.19578"/><path d="M102.93853,207.72312l23.45144,-23.45144"/><path d="M102.67576,183.54908l24.3711,24.3711"/></g><path d="M105.80336,204.86331v-18.39329h18.39329v18.39329z" fill="#0d0278" stroke="#031985" stroke-width="1" stroke-linecap="butt"/><g fill="none" stroke="#ff4de8" stroke-width="1" stroke-linecap="round"><path d="M122.75654,195.62828h-15.51306"/><path d="M114.92321,203.61518v-15.89704"/><path d="M121.71978,189.21568l-13.70833,13.70833"/><path d="M107.85785,188.7933l14.24591,14.24591"/></g><text transform="translate(142.98627,195.48419) scale(0.5,0.5)" font-size="40" xml:space="preserve" fill="#000000" fill-rule="nonzero" stroke="none" stroke-width="1" stroke-linecap="butt" stroke-linejoin="miter" stroke-miterlimit="10" stroke-dasharray="" stroke-dashoffset="0" font-family="Sans Serif" font-weight="normal" text-anchor="start" style="mix-blend-mode: normal"><tspan x="0" dy="0">Proccessors (Level 1, 2, 3)</tspan></text></g></g></svg>