<svg version="1.1" xmlns="http://www.w3.org/2000/svg" xmlns:xlink="http://www.w3.org/1999/xlink" width="24.10097" height="23.71429" viewBox="0,0,24.10097,23.71429"><g transform="translate(-228.14286,-168.14285)"><g data-paper-data="{&quot;isPaintingLayer&quot;:true}" fill-rule="nonzero" stroke-linejoin="miter" stroke-miterlimit="10" stroke-dasharray="" stroke-dashoffset="0" style="mix-blend-mode: normal"><path d="M228.14286,191.85714v-23.71429h23.71429v23.71429z" fill="#0b0b0b" stroke="none" stroke-width="0" stroke-linecap="butt"/><path d="M229.68827,188.97415c0,-0.55228 0.44772,-1 1,-1c0.55228,0 1,0.44772 1,1c0,0.55228 -0.44772,1 -1,1c-0.55228,0 -1,-0.44772 -1,-1z" fill="none" stroke="#ff0000" stroke-width="2" stroke-linecap="butt"/><path d="M243.57716,190.19637v-1.77778l1.44444,-1.33333l1.44444,1.33333v1.77778z" fill="#585858" stroke="#585858" stroke-width="2" stroke-linecap="butt"/><path d="M237.46605,190.08526v-1.77777l1.44445,-1.33334l1.44444,1.33334v1.77777z" fill="#585858" stroke="#585858" stroke-width="2" stroke-linecap="butt"/><path d="M229.74383,175.52971c0,-1.38071 1.11929,-2.5 2.5,-2.5c1.38071,0 2.5,1.11929 2.5,2.5c0,1.38071 -1.11929,2.5 -2.5,2.5c-1.38071,0 -2.5,-1.11929 -2.5,-2.5z" fill="#ff0000" stroke="none" stroke-width="0.5" stroke-linecap="butt"/><path d="M235.74383,175.52971c0,-1.38071 1.11929,-2.5 2.5,-2.5c1.38071,0 2.5,1.11929 2.5,2.5c0,1.38071 -1.11929,2.5 -2.5,2.5c-1.38071,0 -2.5,-1.11929 -2.5,-2.5z" fill="#caff00" stroke="none" stroke-width="0.5" stroke-linecap="butt"/><path d="M241.96605,175.75193c0,-1.38071 1.11929,-2.5 2.5,-2.5c1.38071,0 2.5,1.11929 2.5,2.5c0,1.38071 -1.11929,2.5 -2.5,2.5c-1.38071,0 -2.5,-1.11929 -2.5,-2.5z" fill="#00ff33" stroke="none" stroke-width="0.5" stroke-linecap="butt"/><path d="M239.79938,182.18403l-1.55556,-1.55556c0,0 -2.45827,-0.96257 -3.33333,0c-0.87506,0.96257 -1.03037,2.60409 0,3.66667c1.03037,1.06257 3.55556,0 3.55556,0z" fill="none" stroke="#585858" stroke-width="2" stroke-linecap="round"/><path d="M239.46605,182.07291h12.77778h-3.33333" fill="none" stroke="#585858" stroke-width="2" stroke-linecap="round"/></g></g></svg>